<svg width="64" height="64" viewBox="0 0 64 64" fill="none" xmlns="http://www.w3.org/2000/svg">
<path d="M63.1493 56.6044L46.2676 39.7156C45.9262 39.3813 45.5209 39.1538 45.0658 39.0116C47.9316 34.9867 49.6382 30.0516 49.6382 24.7253C49.6311 11.072 38.5591 0 24.9129 0C11.2525 0 0.18045 11.072 0.18045 24.7324C0.18045 38.3858 11.2525 49.4578 24.9129 49.4578C30.2391 49.4578 35.1671 47.7582 39.2062 44.8853C39.3413 45.3333 39.5689 45.7458 39.9031 46.0871L56.792 62.9689C58.1431 64.3129 60.6533 63.9858 62.4098 62.2293C64.1662 60.4729 64.4933 57.9556 63.1493 56.6044ZM24.9129 40.4622C16.2302 40.4622 9.17601 33.4151 9.17601 24.7253C9.17601 16.0427 16.2302 8.98844 24.9129 8.98844C33.6027 8.98844 40.6498 16.0427 40.6498 24.7253C40.6427 33.4151 33.5956 40.4622 24.9129 40.4622Z" fill="black"/>
</svg>
