<svg width="96" height="96" viewBox="0 0 96 96" fill="none" xmlns="http://www.w3.org/2000/svg">
<path fill-rule="evenodd" clip-rule="evenodd" d="M18 28V11H66V28L18 28ZM18 36L66 36V41.0045C68.7876 41.0542 71.474 41.5186 74 42.3388V36V28V9C74 5.68629 71.3137 3 68 3H16C12.6863 3 10 5.68629 10 9V36V60V79C10 82.3137 12.6863 85 16 85H43.498C41.6999 82.6062 40.2834 79.9094 39.3388 77H18V60H39.3388C40.2834 57.0906 41.6999 54.3938 43.498 52L18 52V36Z" fill="#7E7E7E"/>
<circle cx="65.5" cy="68.5" r="16.5" stroke="#7E7E7E" stroke-width="8"/>
<line x1="76.8284" y1="80.1716" x2="87.8284" y2="91.1716" stroke="#7E7E7E" stroke-width="8"/>
</svg>
